<svg width="21" height="16" viewBox="0 0 21 16" fill="none" xmlns="http://www.w3.org/2000/svg">
<path d="M10.5372 1C6.77978 1 3.97319 3.4404 2.30454 5.43934C1.05238 6.93936 1.05238 9.06064 2.30454 10.5607C3.97319 12.5596 6.77978 15 10.5372 15C14.2946 15 17.1012 12.5596 18.7698 10.5607C20.022 9.06064 20.022 6.93936 18.7698 5.43934C17.1012 3.4404 14.2946 1 10.5372 1Z" stroke="#606060" stroke-width="1.5" stroke-linecap="round" stroke-linejoin="round"/>
<path d="M10.5372 11C12.194 11 13.5372 9.65685 13.5372 8C13.5372 6.34315 12.194 5 10.5372 5C8.88032 5 7.53717 6.34315 7.53717 8C7.53717 9.65685 8.88032 11 10.5372 11Z" stroke="#606060" stroke-width="1.5" stroke-linecap="round" stroke-linejoin="round"/>
</svg>
