<svg width="27" height="28" viewBox="0 0 27 28" fill="none" xmlns="http://www.w3.org/2000/svg">
<path d="M10.9845 6.45708C11.7747 6.24565 12.6138 6.125 13.4999 6.125C17.727 6.125 20.8844 8.87045 22.7617 11.1193C24.1703 12.8068 24.1702 15.1935 22.7615 16.881C22.5456 17.1395 22.3128 17.4047 22.0635 17.6714M14.0625 10.6717C15.4758 10.9088 16.5912 12.0242 16.8283 13.4375M3.37497 3.875L23.625 24.125M12.9375 17.3283C11.7178 17.1237 10.7199 16.2649 10.317 15.125M4.89276 10.3755C4.65987 10.6264 4.44171 10.8756 4.23854 11.119C2.82982 12.8064 2.8296 15.1932 4.23828 16.8807C6.11552 19.1295 9.27293 21.875 13.5 21.875C14.4023 21.875 15.2559 21.7499 16.0587 21.5312" stroke="#C2C3CB" stroke-width="1.5" stroke-linecap="round" stroke-linejoin="round"/>
</svg>
